<svg width="81" height="80" viewBox="0 0 81 80" fill="none" xmlns="http://www.w3.org/2000/svg">
<rect x="0.5" width="80" height="80" rx="40" fill="#009688"/>
<path fill-rule="evenodd" clip-rule="evenodd" d="M33.7349 20.1235C32.291 20.5635 31.1814 21.6397 30.784 22.9853C30.5461 23.7906 30.5005 23.8422 29.7548 24.1508C27.8489 24.9394 26.4325 27.5024 26.8424 29.4211L26.9775 30.0531L26.293 30.2994C24.485 30.9505 23.1955 32.6612 23.0382 34.6176C22.9511 35.7006 23.2352 36.8345 23.7876 37.609C24.0857 38.0268 24.0878 38.0552 23.832 38.2074C22.4432 39.0338 21.4004 40.2229 20.9049 41.5446C19.8138 44.4556 20.9875 47.6587 23.7072 49.1923C24.1377 49.435 24.4901 49.6518 24.4901 49.6737C24.4901 49.6955 24.4249 50.0562 24.3454 50.4749C24.0575 51.9908 24.6836 53.8361 25.8398 54.8788C26.8806 55.8174 27.9324 56.2138 29.361 56.2057L30.5787 56.1989L30.6692 56.6606C30.8232 57.4474 31.5429 58.5763 32.2163 59.0873C33.5422 60.0932 35.3537 60.2689 36.8095 59.5324C37.7292 59.0672 38.2818 58.5177 38.7831 57.57L39.1773 56.8245V40.0046V23.1846L38.8167 22.453C38.3271 21.4602 37.4559 20.6543 36.4765 20.2886C35.6537 19.9812 34.4413 19.9083 33.7349 20.1235ZM44.3962 20.4044C43.3827 20.898 42.8635 21.398 42.3593 22.3659L42.0104 23.0358L41.9712 39.8557L41.9318 56.6757L42.3908 57.6064C43.4532 59.7615 46.004 60.6139 48.1467 59.53C49.2567 58.9685 50.1959 57.7938 50.4288 56.6761L50.5217 56.23L51.7831 56.2107C53.2321 56.1885 53.8554 55.9756 55.0025 55.1111C56.3922 54.0637 57.1798 51.8003 56.7257 50.1588L56.5738 49.6094L57.4664 49.1345C58.5587 48.5533 59.4227 47.6108 60.0363 46.3307C60.4684 45.4292 60.5 45.2513 60.5 43.7258C60.5 42.1831 60.4724 42.0325 60.0215 41.1209C59.4953 40.0567 58.4632 38.9123 57.5855 38.4199L57.0193 38.1023L57.3717 37.5649C58.2018 36.2991 58.2654 34.0341 57.5098 32.648C56.9804 31.6772 56.0318 30.8246 55.0111 30.4023L54.2374 30.0821V28.7173C54.2374 27.523 54.1851 27.2461 53.819 26.5019C53.3644 25.5775 52.3952 24.6249 51.5124 24.2347C50.5786 23.8218 50.5446 23.7876 50.3646 23.0798C49.9234 21.3451 48.2882 20.1016 46.3346 20.015C45.4291 19.9748 45.1723 20.0265 44.3962 20.4044Z" fill="white"/>
</svg>
