<svg width="137" height="132" viewBox="0 0 137 132" fill="none" xmlns="http://www.w3.org/2000/svg">
<path d="M122.094 85.2986L117.601 83.665C116.718 83.3454 115.951 84.364 116.507 85.1169L119.31 88.9929L116.761 92.3757C116.205 93.113 116.919 94.1276 117.794 93.8453L121.84 92.5562L124.498 96.2635C125.034 97.0126 126.218 96.6179 126.214 95.6972L126.216 91.3007L130.449 90.0929C131.335 89.843 131.388 88.5957 130.52 88.2875L126.224 86.7542L126.348 82.5094C126.37 81.5849 125.206 81.1842 124.65 81.9215L122.101 85.3042L122.094 85.2986Z" fill="white"/>
<path d="M10.0938 41.2986L5.60095 39.665C4.71826 39.3454 3.95068 40.364 4.50686 41.1169L7.30984 44.9929L4.76077 48.3757C4.20514 49.113 4.91887 50.1276 5.7938 49.8453L9.84002 48.5562L12.4981 52.2635C13.0335 53.0126 14.2179 52.6179 14.2139 51.6972L14.2156 47.3007L18.4489 46.0929C19.335 45.843 19.3879 44.5957 18.5203 44.2875L14.2239 42.7542L14.3479 38.5094C14.3704 37.5849 13.206 37.1842 12.6504 37.9215L10.1013 41.3042L10.0938 41.2986Z" fill="white"/>
<path d="M116.812 41.9106L126.093 34.1533L124.015 31.6673L114.734 39.4247L116.812 41.9106Z" fill="white"/>
<path d="M115.031 43.1486C115.043 42.6385 114.864 42.1624 114.495 41.7205C114.115 41.2662 113.678 41.0057 113.184 40.9388C112.668 40.8699 112.207 41.0048 111.802 41.3434C111.397 41.682 111.189 42.1064 111.177 42.6165C111.143 43.1246 111.316 43.6058 111.696 44.06C112.065 44.5019 112.508 44.7574 113.024 44.8262C113.518 44.8931 113.968 44.7573 114.373 44.4186C114.778 44.08 114.997 43.6567 115.031 43.1486Z" fill="white"/>
<path d="M106.432 14.0456C105.984 13.5219 105.384 13.0634 104.633 12.6701L102.698 11.657L101.418 14.1021L102.821 14.8369C103.332 15.104 103.645 15.3854 103.761 15.681C103.877 15.9766 103.809 16.3654 103.557 16.8473L101.152 21.4399L98.3236 19.9593L97.0656 22.3619L99.8936 23.8425L98.3686 26.7554L100.92 28.0913L102.764 25.3454L104.593 26.3028L105.851 23.9002L104.022 22.9428L106.405 18.3927C106.902 17.443 107.139 16.6101 107.117 15.8941C107.087 15.1921 106.859 14.576 106.432 14.0456Z" fill="white"/>
<path d="M82.9313 19.6435L83.477 2.37216L80.2386 2.26983L80.0363 8.67464C80.015 9.3463 79.8769 9.91822 79.6219 10.3904C79.3503 10.8781 78.9946 11.243 78.5548 11.4852C78.1149 11.7275 77.6311 11.8402 77.1034 11.8236C76.2398 11.7963 75.6164 11.5125 75.2333 10.9721C74.8497 10.4477 74.673 9.70577 74.7033 8.74625L74.9133 2.10157L71.6989 2L71.4799 8.93254C71.4425 10.116 71.587 11.113 71.9136 11.9237C72.2402 12.7344 72.7407 13.3586 73.4152 13.7961C74.0892 14.2496 74.93 14.4923 75.9375 14.5241C76.817 14.5519 77.5987 14.3845 78.2825 14.0219C78.9498 13.6748 79.4935 13.1877 79.9135 12.5607L79.6929 19.5412L82.9313 19.6435Z" fill="white"/>
<path d="M19.5892 18.874C18.8104 19.3022 18.0822 19.952 17.4046 20.8235C16.7662 21.6446 16.3488 22.455 16.1525 23.2549C15.9463 24.0675 15.9492 24.8196 16.1612 25.5114C16.3859 26.2131 16.8013 26.7996 17.4076 27.271C18.0897 27.8013 18.7304 28.0461 19.3296 28.0053C19.9414 27.9743 20.5581 27.7546 21.1797 27.3462C21.8139 26.9476 22.4916 26.4409 23.2128 25.8261C23.6254 25.478 23.9888 25.1931 24.3031 24.9713C24.63 24.7594 24.9268 24.6253 25.1934 24.5692C25.4502 24.5256 25.667 24.5726 25.8438 24.7101C26.1091 24.9163 26.2305 25.2033 26.2081 25.571C26.1857 25.9386 25.9978 26.3498 25.6442 26.8045C25.3103 27.234 24.9567 27.5063 24.5834 27.6214C24.213 27.759 23.853 27.7527 23.5036 27.6026L21.6327 30.0089C22.6403 30.5897 23.6633 30.7467 24.7017 30.4799C25.7401 30.2131 26.7062 29.505 27.5999 28.3556C28.2383 27.5346 28.6507 26.7304 28.8373 25.9431C29.0238 25.1559 29.0075 24.4339 28.7885 23.7772C28.5821 23.1303 28.1947 22.5858 27.6263 22.1439C27.159 21.7805 26.6889 21.5771 26.2159 21.5337C25.743 21.4902 25.2729 21.5605 24.8057 21.7444C24.3384 21.9283 23.8683 22.181 23.3955 22.5024C22.9254 22.8463 22.4694 23.2112 22.0274 23.5972C21.6149 23.9452 21.2515 24.2302 20.9372 24.4519C20.6229 24.6737 20.331 24.8014 20.0616 24.8352C19.8048 24.8787 19.5438 24.7973 19.2785 24.5911C19.1017 24.4536 18.9754 24.2642 18.8995 24.0228C18.8139 23.7941 18.804 23.5331 18.87 23.2398C18.9485 22.9563 19.1204 22.6441 19.3855 22.303C19.6605 21.9493 19.9531 21.6904 20.2632 21.5262C20.5733 21.3619 20.882 21.2777 21.1893 21.2734C21.5093 21.279 21.8138 21.3435 22.1029 21.4669L24.0769 18.9281C23.4187 18.4974 22.7009 18.2737 21.9235 18.2569C21.146 18.2402 20.3679 18.4459 19.5892 18.874Z" fill="white"/>
<path fill-rule="evenodd" clip-rule="evenodd" d="M118.258 67.6505L136.068 69.3203L135.201 66.0243L131.173 65.7105L129.533 59.4753L132.888 57.2273L132.015 53.9081L117.324 64.0992L118.258 67.6505ZM121.368 64.9465L127.318 60.9595L128.513 65.5032L121.368 64.9465Z" fill="white"/>
<path fill-rule="evenodd" clip-rule="evenodd" d="M44.9138 4.28023C45.951 3.77902 47.0023 3.56424 48.0676 3.63589C49.1254 3.72891 50.1046 4.08206 51.0051 4.69534C51.8982 5.32999 52.6128 6.20196 53.1488 7.31124C53.6987 8.44934 53.9414 9.55823 53.8767 10.6379C53.8045 11.739 53.4656 12.7291 52.8597 13.6082C52.2608 14.5018 51.4428 15.1992 50.4055 15.7004C49.3539 16.2086 48.2991 16.4162 47.2413 16.3232C46.176 16.2515 45.1968 15.8984 44.3037 15.2637C43.4032 14.6504 42.6814 13.7819 42.1385 12.6582C41.5955 11.5346 41.36 10.4222 41.4322 9.32113C41.4969 8.24144 41.8287 7.25481 42.4275 6.36124C43.0334 5.48208 43.8621 4.78841 44.9138 4.28023ZM45.006 7.7808C45.2692 7.36931 45.6457 7.04522 46.1355 6.80853C46.5965 6.58577 47.0772 6.49566 47.5775 6.53821C48.0635 6.58771 48.5365 6.79448 48.9968 7.1585C49.4426 7.52949 49.836 8.06794 50.1771 8.77384C50.5182 9.47975 50.6921 10.1154 50.6988 10.6808C50.698 11.2676 50.5588 11.7702 50.2813 12.1887C50.0106 12.6215 49.6448 12.9494 49.1838 13.1721C48.7084 13.4018 48.2243 13.4848 47.7313 13.4208C47.231 13.3783 46.7579 13.1715 46.3121 12.8005C45.8588 12.4509 45.4617 11.9232 45.1206 11.2173C44.7794 10.5114 44.6093 9.86501 44.6101 9.27822C44.5964 8.6984 44.7284 8.19926 45.006 7.7808Z" fill="white"/>
<path d="M19.256 91.4097L9.97501 99.167L12.053 101.653L21.334 93.8956L19.256 91.4097Z" fill="white"/>
<path d="M21.037 90.1717C21.025 90.6818 21.204 91.1579 21.573 91.5998C21.953 92.0541 22.39 92.3146 22.884 92.3815C23.4 92.4504 23.861 92.3155 24.266 91.9769C24.671 91.6383 24.879 91.2139 24.891 90.7038C24.925 90.1957 24.752 89.7145 24.372 89.2603C24.003 88.8184 23.56 88.5629 23.044 88.4941C22.55 88.4272 22.1 88.563 21.695 88.9017C21.29 89.2403 21.071 89.6636 21.037 90.1717Z" fill="white"/>
<path d="M29.636 119.275C30.084 119.798 30.684 120.257 31.435 120.65L33.37 121.663L34.65 119.218L33.247 118.483C32.736 118.216 32.423 117.935 32.307 117.639C32.191 117.344 32.259 116.955 32.511 116.473L34.916 111.88L37.744 113.361L39.002 110.958L36.174 109.478L37.699 106.565L35.148 105.229L33.304 107.975L31.475 107.018L30.217 109.42L32.046 110.378L29.663 114.928C29.166 115.877 28.929 116.71 28.951 117.426C28.981 118.128 29.209 118.744 29.636 119.275Z" fill="white"/>
<path d="M53.1363 113.677L52.5906 130.948L55.829 131.05L56.0313 124.646C56.0526 123.974 56.1907 123.402 56.4457 122.93C56.7173 122.442 57.073 122.077 57.5128 121.835C57.9527 121.593 58.4365 121.48 58.9642 121.497C59.8278 121.524 60.4512 121.808 60.8343 122.348C61.2179 122.873 61.3946 123.615 61.3643 124.574L61.1543 131.219L64.3687 131.32L64.5877 124.388C64.6251 123.204 64.4806 122.207 64.154 121.397C63.8274 120.586 63.3269 119.962 62.6524 119.524C61.9784 119.071 61.1376 118.828 60.1301 118.796C59.2506 118.768 58.4689 118.936 57.7851 119.298C57.1178 119.646 56.5741 120.133 56.1541 120.76L56.3747 113.779L53.1363 113.677Z" fill="white"/>
<path d="M116.478 114.446C117.257 114.018 117.985 113.368 118.663 112.497C119.301 111.676 119.719 110.865 119.915 110.065C120.121 109.253 120.118 108.501 119.906 107.809C119.682 107.107 119.266 106.521 118.66 106.049C117.978 105.519 117.337 105.274 116.738 105.315C116.126 105.346 115.51 105.566 114.888 105.974C114.254 106.373 113.576 106.879 112.855 107.494C112.442 107.842 112.079 108.127 111.765 108.349C111.438 108.561 111.141 108.695 110.874 108.751C110.617 108.795 110.401 108.748 110.224 108.61C109.959 108.404 109.837 108.117 109.86 107.749C109.882 107.382 110.07 106.971 110.423 106.516C110.757 106.086 111.111 105.814 111.484 105.699C111.855 105.561 112.215 105.568 112.564 105.718L114.435 103.311C113.427 102.731 112.404 102.574 111.366 102.84C110.328 103.107 109.361 103.815 108.468 104.965C107.829 105.786 107.417 106.59 107.23 107.377C107.044 108.164 107.06 108.886 107.279 109.543C107.486 110.19 107.873 110.735 108.441 111.176C108.909 111.54 109.379 111.743 109.852 111.787C110.325 111.83 110.795 111.76 111.262 111.576C111.729 111.392 112.199 111.139 112.672 110.818C113.142 110.474 113.598 110.109 114.04 109.723C114.453 109.375 114.816 109.09 115.13 108.868C115.445 108.647 115.737 108.519 116.006 108.485C116.263 108.442 116.524 108.523 116.789 108.729C116.966 108.867 117.092 109.056 117.168 109.298C117.254 109.526 117.264 109.787 117.198 110.081C117.119 110.364 116.947 110.676 116.682 111.017C116.407 111.371 116.115 111.63 115.804 111.794C115.494 111.958 115.186 112.043 114.878 112.047C114.558 112.041 114.254 111.977 113.965 111.853L111.991 114.392C112.649 114.823 113.367 115.047 114.144 115.063C114.922 115.08 115.7 114.874 116.478 114.446Z" fill="white"/>
<path fill-rule="evenodd" clip-rule="evenodd" d="M17.81 65.6698L1.52588e-05 64L0.86702 67.296L4.89487 67.6098L6.53495 73.845L3.18001 76.093L4.05301 79.4122L18.744 69.2211L17.81 65.6698ZM14.7 68.3738L8.74991 72.3608L7.55505 67.8171L14.7 68.3738Z" fill="white"/>
<path fill-rule="evenodd" clip-rule="evenodd" d="M91.1538 129.04C90.1166 129.541 89.0653 129.756 88 129.684C86.9422 129.591 85.963 129.238 85.0625 128.625C84.1694 127.99 83.4548 127.118 82.9188 126.009C82.3689 124.871 82.1262 123.762 82.1909 122.682C82.2631 121.581 82.602 120.591 83.2079 119.712C83.8068 118.819 84.6248 118.121 85.6621 117.62C86.7137 117.112 87.7685 116.904 88.8263 116.997C89.8916 117.069 90.8708 117.422 91.7639 118.057C92.6644 118.67 93.3862 119.538 93.9291 120.662C94.4721 121.786 94.7076 122.898 94.6354 123.999C94.5707 125.079 94.2389 126.066 93.6401 126.959C93.0342 127.838 92.2055 128.532 91.1538 129.04ZM91.0616 125.54C90.7984 125.951 90.4219 126.275 89.9321 126.512C89.4711 126.735 88.9904 126.825 88.4901 126.782C88.0041 126.733 87.5311 126.526 87.0708 126.162C86.625 125.791 86.2316 125.252 85.8905 124.546C85.5494 123.841 85.3755 123.205 85.3688 122.639C85.3696 122.053 85.5088 121.55 85.7863 121.132C86.057 120.699 86.4228 120.371 86.8838 120.148C87.3592 119.919 87.8433 119.836 88.3363 119.9C88.8366 119.942 89.3097 120.149 89.7555 120.52C90.2088 120.869 90.6059 121.397 90.947 122.103C91.2882 122.809 91.4583 123.455 91.4575 124.042C91.4712 124.622 91.3392 125.121 91.0616 125.54Z" fill="white"/>
</svg>
